<?xml version="1.0" encoding="utf-8"?>
<!-- Generator: Adobe Illustrator 16.0.2, SVG Export Plug-In . SVG Version: 6.00 Build 0)  -->
<!DOCTYPE svg PUBLIC "-//W3C//DTD SVG 1.1//EN" "http://www.w3.org/Graphics/SVG/1.1/DTD/svg11.dtd">
<svg version="1.1" id="Layer_1" xmlns="http://www.w3.org/2000/svg" xmlns:xlink="http://www.w3.org/1999/xlink" x="0px" y="0px"
	 width="190px" height="60.333px" viewBox="0 0 190 60.333" enable-background="new 0 0 190 60.333" xml:space="preserve">
<g>
	<path fill="#FFFFFF" d="M34.28,47.964h-6.766V23.552l-6.409,0.12v24.292h-6.796V23.552L7.9,23.672v24.292H1.076V17.859h6.825v1.103
		c1.59-0.258,3.169-0.517,4.74-0.774c1.927-0.299,3.527-0.447,4.798-0.447c1.569,0,2.583,0.447,3.041,1.341
		c1.669-0.258,3.338-0.527,5.007-0.805c2.206-0.358,3.894-0.537,5.067-0.537c2.484,0,3.726,1.222,3.726,3.666L34.28,47.964
		L34.28,47.964z"/>
	<path fill="#FFFFFF" d="M56.45,41.914c0,2.443-0.875,4.152-2.623,5.125c-1.272,0.697-3.199,1.044-5.783,1.044
		c-0.595,0-1.435-0.021-2.519-0.06c-1.083-0.039-1.862-0.059-2.34-0.059v10.998h-6.826V17.86h6.826v1.103
		c1.59-0.239,3.18-0.487,4.769-0.746c2.008-0.318,3.597-0.477,4.77-0.477c2.484,0,3.726,1.222,3.726,3.666V41.914z M49.595,40.035
		V23.552l-6.409,0.12V42.3h4.233C48.869,42.3,49.595,41.545,49.595,40.035z"/>
	<path fill="#02FD84" d="M71.178,48.632H59.069V35.609h12.109L71.178,48.632L71.178,48.632z"/>
	<path fill="#FFFFFF" d="M93.064,44.238c0,2.483-1.263,3.727-3.786,3.727H77.444c-2.563,0-3.844-1.242-3.844-3.727V21.584
		c0-2.483,1.281-3.725,3.844-3.725h11.834c2.523,0,3.786,1.242,3.786,3.725v7.154h-6.647v-5.186h-6.11V42.3h6.11v-5.751h6.647
		V44.238z"/>
	<path fill="#FFFFFF" d="M114.996,44.238c0,2.483-1.263,3.727-3.786,3.727H98.989c-2.563,0-3.845-1.242-3.845-3.727V21.584
		c0-2.483,1.282-3.725,3.845-3.725h12.221c2.523,0,3.786,1.242,3.786,3.725V44.238z M108.319,42.3V23.552h-6.469V42.3H108.319
		L108.319,42.3z"/>
	<path fill="#FFFFFF" d="M137.076,47.964h-6.797v-1.043c-4.611,0.814-7.192,1.221-7.751,1.221c-1.708,0-3.049-0.502-4.023-1.504
		c-0.973-1.004-1.46-2.369-1.46-4.1V23.911c0-2.446,0.875-4.144,2.622-5.098c1.272-0.716,3.199-1.073,5.783-1.073
		c0.576,0,1.41,0.019,2.503,0.06c1.093,0.039,1.87,0.059,2.326,0.059V1.316h6.794v46.648H137.076z M130.279,42.091V23.552h-4.202
		c-1.511,0-2.267,0.755-2.267,2.266v14.396c0,1.47,0.718,2.206,2.146,2.206C126.295,42.42,127.736,42.311,130.279,42.091z"/>
	<path fill="#FFFFFF" d="M146.16,13.537h-6.824V6.502h6.824V13.537z M146.101,47.964h-6.706V17.859h6.706V47.964z"/>
	<path fill="#FFFFFF" d="M168.448,47.964h-6.854V23.552l-6.409,0.12v24.292h-6.825V17.859h6.825v1.103
		c1.589-0.258,3.169-0.507,4.738-0.746c1.948-0.318,3.547-0.477,4.801-0.477c2.483,0,3.724,1.221,3.724,3.666V47.964z"/>
	<path fill="#FFFFFF" d="M190.5,55.237c0,2.483-1.281,3.726-3.845,3.726h-11.862c-2.565,0-3.847-1.242-3.847-3.726v-4.829h6.589
		v3.607h6.17v-6.23h-7.004c-1.908,0-3.426-0.536-4.547-1.608c-1.122-1.073-1.684-2.554-1.684-4.441v-18.42
		c0-1.73,0.488-3.09,1.461-4.083c0.973-0.995,2.314-1.491,4.023-1.491c0.853,0,3.438,0.406,7.75,1.222v-1.103h6.797v37.377H190.5z
		 M183.705,42.3v-18.51c-2.285-0.238-3.708-0.358-4.263-0.358c-1.469,0-2.206,0.726-2.206,2.175v14.427
		c0,1.511,0.756,2.266,2.267,2.266H183.705z"/>
</g>
</svg>
